<?xml version="1.0" encoding="utf-8"?>
<!-- Generator: Adobe Illustrator 26.3.1, SVG Export Plug-In . SVG Version: 6.00 Build 0)  -->
<svg version="1.1" id="Layer_1" xmlns="http://www.w3.org/2000/svg" xmlns:xlink="http://www.w3.org/1999/xlink" x="0px" y="0px"
	 viewBox="0 0 612 792" style="enable-background:new 0 0 612 792;" xml:space="preserve">
<style type="text/css">
	.st0{opacity:0.4;}
	.st1{fill:#731F05;}
	.st2{fill:#ED1C24;}
	.st3{opacity:0.89;}
	.st4{fill:#8A7E30;}
	.st5{fill:#BE1E2D;}
</style>
<g class="st0">
	<path class="st1" d="M82.18,81.25c-2.48,6.75,4.4,12.98,17.05,23.16c37.6,30.26,98.37,73.03,191.76,118.32
		c29.79-6.52,73.41-12.17,113.73-0.3c68.92,20.29,85.73,79.25,104.41,144.8c9.73,34.15,10.35,85.91,11.19,188.03
		c0.63,77-0.98,84.29-10.25,94.32c-70.09,75.82-363.39,75.98-434.4,0c-9.79-10.47-10.91-17.64-12.12-90.09
		c-2.64-158.55,1.84-177.8,6.53-193.47c10.87-36.39,40.35-135.05,112.43-143.59c32.52-3.86,61.69,12.05,108.5,0.3
		c9.6-2.41,16.31-5.07,47.54-21.77c55.89-29.88,104.85-59.02,153.81-102.18c12.37-10.9,13.74-13.01,13.05-15.72
		C495.46,44.03,98.54,36.67,82.18,81.25z"/>
	<path class="st2" d="M86.14,82.7c-0.36,3.08,4.08,5.79,6.63,7.74c0,0,6.22,4.29,6.22,4.29c27.35,20.76,55.38,40.65,83.94,59.72
		c34.84,23.57,73.2,46.09,107.96,67.78c35.27-9.15,73.19-13.12,109.25-4.85c74.49,16.69,95.43,80.19,113.97,145.64
		c2.66,8.85,4.64,18.3,5.99,27.42c7.69,60.68,5.64,121.71,6.94,182.66c-0.02,18.44,0.42,36.83-1.45,55.38
		c-1.21,11.35-4.04,19.93-12.95,28.23c-25.16,24.2-60.01,35.31-93.05,43.52c-82.97,18.37-173.25,18.28-256.18-0.41
		c-33.69-8.44-73.07-21.39-96.32-48.73c-5.66-6.99-7.55-16.47-8.5-25.08c-2.72-28.47-2.26-62.92-2.94-91.7
		c-0.19-48.88-1.79-97.62,2.55-146.46c0.69-6.21,1.63-12.61,3.29-18.96c1.36-5.04,3.72-12.74,5.3-17.81
		c14.96-46.34,36.23-98.17,79.97-124.36c39.32-22.77,70.16-6.8,110.54-7.01c14.24-0.28,28.6-2.31,41.93-7.36
		c8.13-3.33,15.99-7.48,23.9-11.57c54.57-28.55,108.35-59.62,155.35-99.65c5.05-4.3,11.76-10.41,17.15-14.26
		c1.55-1.21,2.94-2.23,4.12-3.45c0.22-0.23,0.12-0.1,0.1,0.48c0,0.27,0.06,0.52,0.08,0.53c0.02,0,0-0.09-0.01-0.16
		c-0.05-0.16-0.17-0.41-0.39-0.7C466.19,49.62,111.76,42.67,86.14,82.7L86.14,82.7z M78.23,79.79
		c15.72-40.08,244.47-34.66,289.25-31.33c36.57,2.41,73.33,5.02,109.23,13.5c6.04,1.53,12.08,3.26,18.12,5.78
		c9.91,3.94,22.32,12.93,13.15,24.51c-5.53,7.91-12.91,13.77-20.09,19.97c-47.85,40.82-102.44,72.5-157.93,101.58
		c-8.24,4.28-16.51,8.63-25.23,12.21c-15,5.77-31.23,8.14-47.23,8.46c-24.24,0.79-48.54-6.77-71.95-4.92
		c-48.01,4.59-75.75,51.66-92.51,92.3c-5.62,13.64-10.35,28.1-14.63,42.32c-2.64,8.29-4.51,16.48-5.34,25.34
		c-4.92,59.56-2.3,121.11-1.82,180.96c0.43,17.97,0.51,36.09,2.27,53.83c1.07,8.69,2.13,14.95,7.92,20.48
		c22.12,22.41,55.42,33.05,85.45,40.7c87.76,20.1,197.99,19.61,283.72-8.84c20.62-7.53,43.74-17.92,57.45-35.4
		c2.6-4.12,3.5-9.27,4.12-14.37c0.67-5.67,0.97-11.62,1.19-17.58c0.82-60.3,0.67-121.17-1.89-181.39
		c-1.06-17.91-2.52-35.7-6.53-53.08c-1.18-4.74-3.31-12.42-4.71-17.3c-9.97-34.35-19.72-69.45-42.96-96.92
		c-40.45-47.06-109.41-47.4-166.16-37.41c-45.38-16.73-88.87-38.86-130.06-64.31c-11.26-7.04-22.74-14.79-33.49-22.59
		c-10.76-7.91-21.62-16.33-31.85-24.92C87.77,104.77,73.07,91.25,78.23,79.79L78.23,79.79z"/>
</g>
<g class="st3">
	<ellipse class="st4" cx="291.6" cy="216.06" rx="121.41" ry="47.43"/>
	<path class="st5" d="M291.6,279.09c-10.64,0.59-21.31-1.12-31.82-2.64c-25.87-4.27-52.03-10.84-74.47-25.15
		c-8.77-5.89-17.03-13.03-21.22-23.16c-5.36-12.49-0.56-25.8,9.24-34.31c20.87-18.29,56.44-23.72,83.3-25.65
		c17.44-1.28,34.97-0.09,52.35,0.76c11.59,0.34,23.31,0.88,34.82,2.46c22.2,3.18,50.27,9.09,66.89,25.13
		c8.31,7.95,12.01,20.09,7.3,31.1c-6.63,15.66-22.68,25.01-37.27,31.92C352.69,272.17,322.07,277.36,291.6,279.09L291.6,279.09z
		 M291.6,247.9c31.03,1.68,82.47-0.76,107.26-20.53c20.36-16.58-8.09-34.9-23.25-41.54c-20.93-9.36-43.81-14.33-66.65-16.52
		c-17.29-1.06-34.76,1.01-51.77,3.72c-16.88,2.94-33.51,7.21-49.04,14.27c-13.28,6.05-41.35,22.18-24.23,38.15
		c3.47,3.32,7.52,5.75,11.86,7.97c9.37,4.63,19.82,7.67,30.19,9.81c16.01,3.25,32.68,4.67,49.1,4.49
		C280.6,247.59,286.09,247.56,291.6,247.9L291.6,247.9z"/>
</g>
</svg>
